<svg xmlns="http://www.w3.org/2000/svg"  viewBox="0 0 333333 333333" shape-rendering="geometricPrecision" text-rendering="geometricPrecision" image-rendering="optimizeQuality" fill-rule="evenodd" clip-rule="evenodd"><path d="M302077 0H31255C14069 0 1 14068 1 31256v270822c0 17186 14068 31254 31254 31254h270822c17186 0 31254-14068 31254-31254l2-270824C333333 14068 319265 0 302079 0h-2zM142041 135879h34068v17465l493 1c4744-8512 16345-17465 33644-17465 35974-2 42628 22387 42628 51509v59324l-35529 1v-52589c0-12537-260-28675-18473-28675-18499 0-21333 13646-21333 27761v53503h-35496V135878zm-24630-30787c0 10198-8276 18473-18474 18473s-18477-8276-18477-18473c0-10198 8279-18474 18477-18474s18474 8276 18474 18474zm-36951 30787h36951v110836H80460V135879z" fill="#0077b5"/></svg>